<svg width="219" height="50" viewBox="0 0 219 50" fill="none" xmlns="http://www.w3.org/2000/svg">
<path d="M64.6901 13.6169V35.1061C64.6901 35.8002 64.8844 36.3277 65.2731 36.6887C65.6618 37.0496 66.2171 37.2301 66.9389 37.2301H76.9756L77.2671 42.0193C75.2959 42.2415 73.2274 42.3664 71.0619 42.3942C68.924 42.4497 66.7862 42.4774 64.6484 42.4774C62.5661 42.4774 60.9836 41.9222 59.9008 40.8116C58.8458 39.6733 58.3182 38.2296 58.3182 36.4804V13.6169H64.6901Z" fill="#153C78"/>
<path d="M90.1005 21.2381C92.6826 21.2381 94.751 21.599 96.3058 22.3209C97.8605 23.015 98.9711 24.1533 99.6374 25.7358C100.332 27.3184 100.679 29.4423 100.679 32.1076C100.679 34.7174 100.332 36.8136 99.6374 38.3962C98.9711 39.9787 97.8605 41.117 96.3058 41.8111C94.751 42.5052 92.6826 42.8523 90.1005 42.8523C87.5462 42.8523 85.4778 42.5052 83.8953 41.8111C82.3405 41.117 81.2161 39.9787 80.522 38.3962C79.8279 36.8136 79.4808 34.7174 79.4808 32.1076C79.4808 29.4423 79.8279 27.3184 80.522 25.7358C81.2161 24.1533 82.3405 23.015 83.8953 22.3209C85.4778 21.599 87.5462 21.2381 90.1005 21.2381ZM90.1005 25.7358C89.0455 25.7358 88.2126 25.9163 87.6018 26.2772C86.991 26.6381 86.5606 27.2767 86.3107 28.1929C86.0609 29.1091 85.9359 30.414 85.9359 32.1076C85.9359 33.7735 86.0609 35.0645 86.3107 35.9807C86.5606 36.8969 86.991 37.5355 87.6018 37.8964C88.2126 38.2296 89.0455 38.3962 90.1005 38.3962C91.1555 38.3962 91.9885 38.2296 92.5993 37.8964C93.2101 37.5355 93.6404 36.8969 93.8903 35.9807C94.1402 35.0645 94.2651 33.7735 94.2651 32.1076C94.2651 30.414 94.1402 29.1091 93.8903 28.1929C93.6404 27.2767 93.2101 26.6381 92.5993 26.2772C91.9885 25.9163 91.1555 25.7358 90.1005 25.7358Z" fill="#153C78"/>
<path d="M114.665 21.2381C117.247 21.2381 119.316 21.599 120.87 22.3209C122.425 23.015 123.536 24.1533 124.202 25.7358C124.896 27.3184 125.243 29.4423 125.243 32.1076C125.243 34.7174 124.896 36.8136 124.202 38.3962C123.536 39.9787 122.425 41.117 120.87 41.8111C119.316 42.5052 117.247 42.8523 114.665 42.8523C112.111 42.8523 110.042 42.5052 108.46 41.8111C106.905 41.117 105.781 39.9787 105.087 38.3962C104.392 36.8136 104.045 34.7174 104.045 32.1076C104.045 29.4423 104.392 27.3184 105.087 25.7358C105.781 24.1533 106.905 23.015 108.46 22.3209C110.042 21.599 112.111 21.2381 114.665 21.2381ZM114.665 25.7358C113.61 25.7358 112.777 25.9163 112.166 26.2772C111.556 26.6381 111.125 27.2767 110.875 28.1929C110.625 29.1091 110.5 30.414 110.5 32.1076C110.5 33.7735 110.625 35.0645 110.875 35.9807C111.125 36.8969 111.556 37.5355 112.166 37.8964C112.777 38.2296 113.61 38.3962 114.665 38.3962C115.72 38.3962 116.553 38.2296 117.164 37.8964C117.775 37.5355 118.205 36.8969 118.455 35.9807C118.705 35.0645 118.83 33.7735 118.83 32.1076C118.83 30.414 118.705 29.1091 118.455 28.1929C118.205 27.2767 117.775 26.6381 117.164 26.2772C116.553 25.9163 115.72 25.7358 114.665 25.7358Z" fill="#153C78"/>
<path d="M152.64 13.6169L145.143 25.1944C144.838 25.6942 144.505 26.1245 144.144 26.4854C143.783 26.8464 143.422 27.1518 143.061 27.4017V27.5266C143.45 27.7487 143.866 28.0819 144.31 28.5261C144.755 28.9703 145.116 29.4423 145.393 29.942L153.139 42.3525H146.018L137.147 27.3184L145.768 13.6169H152.64ZM136.189 13.6169V21.7378C136.189 22.6818 136.12 23.6258 135.981 24.5697C135.842 25.4859 135.62 26.3883 135.315 27.2767C135.537 28.1374 135.731 29.0258 135.898 29.942C136.092 30.8305 136.189 31.6634 136.189 32.4408V42.3525H129.859V13.6169H136.189ZM139.438 25.1944V29.6089H134.274V25.1944H139.438Z" fill="#153C78"/>
<path d="M164.933 21.2381C167.515 21.2381 169.583 21.599 171.138 22.3209C172.693 23.015 173.803 24.1533 174.47 25.7358C175.164 27.3184 175.511 29.4423 175.511 32.1076C175.511 34.7174 175.164 36.8136 174.47 38.3962C173.803 39.9787 172.693 41.117 171.138 41.8111C169.583 42.5052 167.515 42.8523 164.933 42.8523C162.379 42.8523 160.31 42.5052 158.728 41.8111C157.173 41.117 156.048 39.9787 155.354 38.3962C154.66 36.8136 154.313 34.7174 154.313 32.1076C154.313 29.4423 154.66 27.3184 155.354 25.7358C156.048 24.1533 157.173 23.015 158.728 22.3209C160.31 21.599 162.379 21.2381 164.933 21.2381ZM164.933 25.7358C163.878 25.7358 163.045 25.9163 162.434 26.2772C161.823 26.6381 161.393 27.2767 161.143 28.1929C160.893 29.1091 160.768 30.414 160.768 32.1076C160.768 33.7735 160.893 35.0645 161.143 35.9807C161.393 36.8969 161.823 37.5355 162.434 37.8964C163.045 38.2296 163.878 38.3962 164.933 38.3962C165.988 38.3962 166.821 38.2296 167.432 37.8964C168.042 37.5355 168.473 36.8969 168.723 35.9807C168.973 35.0645 169.097 33.7735 169.097 32.1076C169.097 30.414 168.973 29.1091 168.723 28.1929C168.473 27.2767 168.042 26.6381 167.432 26.2772C166.821 25.9163 165.988 25.7358 164.933 25.7358Z" fill="#153C78"/>
<path d="M185.749 21.7795V35.3144C185.749 36.175 185.93 36.7858 186.291 37.1468C186.679 37.5077 187.29 37.6882 188.123 37.6882C188.984 37.6882 189.831 37.5355 190.663 37.2301C191.524 36.8969 192.579 36.3833 193.829 35.6892L194.328 39.0625C192.829 40.3674 191.358 41.3391 189.914 41.9777C188.47 42.6163 186.985 42.9355 185.458 42.9355C181.543 42.9355 179.586 41.0198 179.586 37.1884V21.7795H185.749ZM199.367 21.7795V42.3525H194.495L193.787 38.3129L193.204 37.7298V21.7795H199.367Z" fill="#153C78"/>
<path d="M212.435 16.074V35.7725C212.435 36.5221 212.601 37.0635 212.935 37.3967C213.296 37.7021 213.879 37.8548 214.684 37.8548H217.349L218.015 42.0193C217.516 42.1859 216.905 42.3247 216.183 42.4358C215.461 42.5746 214.739 42.6718 214.017 42.7273C213.296 42.8106 212.685 42.8523 212.185 42.8523C210.325 42.8523 208.867 42.3525 207.812 41.353C206.785 40.3535 206.271 38.9514 206.271 37.1468L206.23 16.074H212.435ZM218.182 21.7795V25.8191H202.648V21.9877L206.646 21.7795H218.182Z" fill="#153C78"/>
<path d="M43.7281 25.6527C43.7281 23.8486 41.9871 22.5567 40.183 22.5704C40.1501 22.5706 40.1171 22.5707 40.0841 22.5707C32.6989 22.5707 26.7227 16.5946 26.7227 9.20938C26.7227 9.1764 26.7229 9.14343 26.7231 9.11045C26.7368 7.3064 25.4449 5.56537 23.6408 5.56537H12.1467C5.44172 5.56537 0 11.0071 0 17.7121V20.5452C2.8639 15.9148 7.98568 12.8534 13.8728 12.8534C22.9296 12.8534 30.175 20.0988 30.175 29.1555C30.175 32.416 29.0882 35.3141 27.6391 37.85L37.4064 47.6173C37.4784 47.6893 37.5897 47.7047 37.6777 47.6535C41.2949 45.549 43.7281 41.6304 43.7281 37.1468V25.6527Z" fill="#153C78"/>
<path d="M28.939 49.2935L22.5673 42.9218C20.0314 44.3709 17.1332 45.4577 13.8728 45.4577C7.99726 45.4577 2.88406 42.4083 0.016933 37.7932C0.353294 44.1981 5.65856 49.2935 12.1467 49.2935H28.939Z" fill="#153C78"/>
<path d="M4.81606 29.1555C4.81606 34.2273 8.80103 38.2123 13.8728 38.2123C18.9446 38.2123 22.9296 34.2273 22.9296 29.1555C22.9296 24.0838 18.9446 20.0988 13.8728 20.0988C8.80103 20.0988 4.81606 24.0838 4.81606 29.1555Z" fill="#153C78"/>
<path d="M48.587 9.20911C48.587 13.8977 44.7729 17.7118 40.0843 17.7118C35.3957 17.7118 31.5816 13.8977 31.5816 9.20911C31.5816 4.52049 35.3957 0.706421 40.0843 0.706421C44.7729 0.706421 48.587 4.52049 48.587 9.20911Z" fill="url(#paint0_linear_293_1517)"/>
<defs>
<linearGradient id="paint0_linear_293_1517" x1="40.0843" y1="0.706421" x2="40.0843" y2="17.7118" gradientUnits="userSpaceOnUse">
<stop stop-color="#27D8BC"/>
<stop offset="1" stop-color="#27CFC1"/>
</linearGradient>
</defs>
</svg>
