<svg width="150" height="34" viewBox="0 0 150 34" fill="none" xmlns="http://www.w3.org/2000/svg">
<path d="M44.4744 8.87598V23.6498C44.4744 24.127 44.608 24.4897 44.8752 24.7378C45.1424 24.986 45.5242 25.11 46.0205 25.11H52.9207L53.1211 28.4027C51.7659 28.5554 50.3438 28.6413 48.855 28.6603C47.3852 28.6985 45.9155 28.7176 44.4457 28.7176C43.0142 28.7176 41.9262 28.3359 41.1817 27.5724C40.4564 26.7898 40.0938 25.7972 40.0938 24.5947V8.87598H44.4744Z" fill="white"/>
<path d="M61.9441 14.1155C63.7192 14.1155 65.1413 14.3637 66.2102 14.86C67.2791 15.3372 68.0426 16.1197 68.5007 17.2077C68.9779 18.2957 69.2165 19.756 69.2165 21.5884C69.2165 23.3826 68.9779 24.8237 68.5007 25.9117C68.0426 26.9997 67.2791 27.7823 66.2102 28.2595C65.1413 28.7367 63.7192 28.9753 61.9441 28.9753C60.188 28.9753 58.766 28.7367 57.678 28.2595C56.6091 27.7823 55.836 26.9997 55.3588 25.9117C54.8816 24.8237 54.643 23.3826 54.643 21.5884C54.643 19.756 54.8816 18.2957 55.3588 17.2077C55.836 16.1197 56.6091 15.3372 57.678 14.86C58.766 14.3637 60.188 14.1155 61.9441 14.1155ZM61.9441 17.2077C61.2187 17.2077 60.6461 17.3318 60.2262 17.58C59.8062 17.8281 59.5104 18.2671 59.3386 18.897C59.1668 19.5269 59.0809 20.424 59.0809 21.5884C59.0809 22.7336 59.1668 23.6212 59.3386 24.2511C59.5104 24.881 59.8062 25.32 60.2262 25.5681C60.6461 25.7972 61.2187 25.9117 61.9441 25.9117C62.6694 25.9117 63.242 25.7972 63.662 25.5681C64.0819 25.32 64.3777 24.881 64.5495 24.2511C64.7213 23.6212 64.8072 22.7336 64.8072 21.5884C64.8072 20.424 64.7213 19.5269 64.5495 18.897C64.3777 18.2671 64.0819 17.8281 63.662 17.58C63.242 17.3318 62.6694 17.2077 61.9441 17.2077Z" fill="white"/>
<path d="M78.8322 14.1155C80.6073 14.1155 82.0294 14.3637 83.0983 14.86C84.1672 15.3372 84.9307 16.1197 85.3888 17.2077C85.866 18.2957 86.1046 19.756 86.1046 21.5884C86.1046 23.3826 85.866 24.8237 85.3888 25.9117C84.9307 26.9997 84.1672 27.7823 83.0983 28.2595C82.0294 28.7367 80.6073 28.9753 78.8322 28.9753C77.0761 28.9753 75.6541 28.7367 74.5661 28.2595C73.4972 27.7823 72.7241 26.9997 72.2469 25.9117C71.7697 24.8237 71.5312 23.3826 71.5312 21.5884C71.5312 19.756 71.7697 18.2957 72.2469 17.2077C72.7241 16.1197 73.4972 15.3372 74.5661 14.86C75.6541 14.3637 77.0761 14.1155 78.8322 14.1155ZM78.8322 17.2077C78.1069 17.2077 77.5342 17.3318 77.1143 17.58C76.6944 17.8281 76.3985 18.2671 76.2267 18.897C76.0549 19.5269 75.969 20.424 75.969 21.5884C75.969 22.7336 76.0549 23.6212 76.2267 24.2511C76.3985 24.881 76.6944 25.32 77.1143 25.5681C77.5342 25.7972 78.1069 25.9117 78.8322 25.9117C79.5575 25.9117 80.1301 25.7972 80.5501 25.5681C80.97 25.32 81.2659 24.881 81.4377 24.2511C81.6094 23.6212 81.6953 22.7336 81.6953 21.5884C81.6953 20.424 81.6094 19.5269 81.4377 18.897C81.2659 18.2671 80.97 17.8281 80.5501 17.58C80.1301 17.3318 79.5575 17.2077 78.8322 17.2077Z" fill="white"/>
<path d="M104.94 8.87598L99.786 16.8355C99.576 17.1791 99.347 17.475 99.0988 17.7231C98.8507 17.9713 98.6025 18.1812 98.3544 18.353V18.4389C98.6216 18.5916 98.9079 18.8207 99.2133 19.1261C99.5187 19.4315 99.7669 19.7559 99.9578 20.0995L105.283 28.6317H100.387L94.2887 18.2957L100.215 8.87598H104.94ZM93.6302 8.87598V14.4591C93.6302 15.1081 93.5825 15.7571 93.487 16.4061C93.3916 17.036 93.2389 17.6563 93.0289 18.2671C93.1816 18.8588 93.3153 19.4696 93.4298 20.0995C93.5634 20.7103 93.6302 21.283 93.6302 21.8174V28.6317H89.2782V8.87598H93.6302ZM95.8635 16.8355V19.8705H92.3132V16.8355H95.8635Z" fill="white"/>
<path d="M113.391 14.1155C115.166 14.1155 116.589 14.3637 117.657 14.86C118.726 15.3372 119.49 16.1197 119.948 17.2077C120.425 18.2957 120.664 19.756 120.664 21.5884C120.664 23.3826 120.425 24.8237 119.948 25.9117C119.49 26.9997 118.726 27.7823 117.657 28.2595C116.589 28.7367 115.166 28.9753 113.391 28.9753C111.635 28.9753 110.213 28.7367 109.125 28.2595C108.056 27.7823 107.283 26.9997 106.806 25.9117C106.329 24.8237 106.09 23.3826 106.09 21.5884C106.09 19.756 106.329 18.2957 106.806 17.2077C107.283 16.1197 108.056 15.3372 109.125 14.86C110.213 14.3637 111.635 14.1155 113.391 14.1155ZM113.391 17.2077C112.666 17.2077 112.093 17.3318 111.673 17.58C111.253 17.8281 110.958 18.2671 110.786 18.897C110.614 19.5269 110.528 20.424 110.528 21.5884C110.528 22.7336 110.614 23.6212 110.786 24.2511C110.958 24.881 111.253 25.32 111.673 25.5681C112.093 25.7972 112.666 25.9117 113.391 25.9117C114.117 25.9117 114.689 25.7972 115.109 25.5681C115.529 25.32 115.825 24.881 115.997 24.2511C116.169 23.6212 116.254 22.7336 116.254 21.5884C116.254 20.424 116.169 19.5269 115.997 18.897C115.825 18.2671 115.529 17.8281 115.109 17.58C114.689 17.3318 114.117 17.2077 113.391 17.2077Z" fill="white"/>
<path d="M127.703 14.4878V23.793C127.703 24.3847 127.827 24.8046 128.075 25.0528C128.342 25.3009 128.762 25.425 129.335 25.425C129.926 25.425 130.508 25.32 131.081 25.11C131.673 24.881 132.398 24.5279 133.257 24.0507L133.601 26.3698C132.57 27.2669 131.558 27.935 130.566 28.374C129.573 28.8131 128.552 29.0326 127.502 29.0326C124.811 29.0326 123.465 27.7155 123.465 25.0814V14.4878H127.703ZM137.065 14.4878V28.6317H133.715L133.228 25.8545L132.828 25.4536V14.4878H137.065Z" fill="white"/>
<path d="M146.049 10.5652V24.1079C146.049 24.6233 146.163 24.9955 146.392 25.2246C146.641 25.4345 147.041 25.5395 147.595 25.5395H149.427L149.886 28.4027C149.542 28.5172 149.122 28.6126 148.626 28.689C148.129 28.7844 147.633 28.8512 147.137 28.8894C146.641 28.9467 146.221 28.9753 145.877 28.9753C144.598 28.9753 143.596 28.6317 142.871 27.9446C142.165 27.2574 141.811 26.2935 141.811 25.0528L141.783 10.5652H146.049ZM150 14.4878V17.265H139.321V14.6309L142.069 14.4878H150Z" fill="white"/>
<path d="M30.0631 17.1504C30.0631 15.9101 28.8661 15.0218 27.6258 15.0313C27.6032 15.0314 27.5805 15.0315 27.5578 15.0315C22.4805 15.0315 18.3719 10.9229 18.3719 5.84559C18.3719 5.82292 18.372 5.80025 18.3721 5.77758C18.3816 4.53729 17.4933 3.34033 16.253 3.34033H8.35086C3.74118 3.34033 0 7.08152 0 11.6912V13.639C1.96893 10.4556 5.49015 8.35085 9.53756 8.35085C15.7641 8.35085 20.7453 13.3321 20.7453 19.5586C20.7453 21.8001 19.9981 23.7926 19.0019 25.536L25.7169 32.251C25.7664 32.3005 25.8429 32.3111 25.9035 32.2759C28.3902 30.8291 30.0631 28.135 30.0631 25.0526V17.1504Z" fill="white"/>
<path d="M19.8956 33.4034L15.515 29.0229C13.7716 30.0191 11.7791 30.7663 9.53756 30.7663C5.49812 30.7663 1.98279 28.6698 0.0116414 25.497C0.24289 29.9003 3.89026 33.4034 8.35086 33.4034H19.8956Z" fill="white"/>
<path d="M3.31104 19.5586C3.31104 23.0454 6.05071 25.7851 9.53756 25.7851C13.0244 25.7851 15.7641 23.0454 15.7641 19.5586C15.7641 16.0717 13.0244 13.3321 9.53756 13.3321C6.05071 13.3321 3.31104 16.0717 3.31104 19.5586Z" fill="white"/>
<path d="M33.4035 5.8456C33.4035 9.06903 30.7814 11.6912 27.5579 11.6912C24.3345 11.6912 21.7123 9.06903 21.7123 5.8456C21.7123 2.62217 24.3345 0 27.5579 0C30.7814 0 33.4035 2.62217 33.4035 5.8456Z" fill="white"/>
</svg>
